<?xml version="1.0" encoding="UTF-8"?><svg xmlns="http://www.w3.org/2000/svg" height="587.28pt" version="1.1" viewBox="0 0 617.44 587.28" width="617.44pt">
 <defs>
  <clipPath id="clip1">
   <path d="m0 360h227v227.28h-227z"/>
  </clipPath>
  <clipPath id="clip2">
   <path d="m390 360h227.44v227.28h-227.44z"/>
  </clipPath>
 </defs>
 <g id="surface1">
  <g><path d="m188.03 246.67c0.55 3.68 0.85 7.26 0.85 10.54 0 19.9-10.77 31.08-24.04 31.08-13.28 0-24.05-19.98-24.05-31.08 0-2.59 0.81-6.3 2.12-10.54h45.12" fill="#18193a"/></g>
  <g><path d="m330.14 103.25c4.74-3.617 9.43-6.824 13.47-8.875-2.39-2.695-4.37-5.715-5.8-8.941l-7.67 17.816" fill="#2c2415"/></g>
  <g><path d="m359.23 53.129c2.77-2.383 6.52-1.149 9.75-0.184 1.11 0.332 3.02-1.847-0.33-2.656-3.54-1.105-7.55-1.609-10.56 1.02-0.83 0.722 0.18 2.64 1.14 1.82" fill="#2c2415"/></g>
  <g><path d="m369.97 87.223l0.03-0.106-0.04 0.137 0.01-0.031" fill="#7a551c"/></g>
  <g><path d="m369.71 85.504c0.02-0.164-0.06-0.281-0.25-0.332-1.44-0.344-8.39 2.047-14.37-2.984l0.15-0.18c0.11-0.137 0.2-0.258 0.26-0.422l0.06-0.152 0.03-0.071 0.01-0.023c0.2-0.399-0.21-1.207-0.71-1.031-0.3 0.105-0.49 0.277-0.7 0.511-0.12 0.125-0.23 0.246-0.34 0.368l-0.17 0.156c-0.11 0.109-0.09 0.32-0.06 0.484-0.01 0.356 0.24 0.766 0.58 0.86 0.19 0.101 0.38 0.105 0.53-0.063l0.16-0.184c3.11 4.817 10.33 7.192 10.33 7.192 0.19 0.043 0.38 0.07 0.57 0.09 1.9 0.168 3.72-1.055 4.17-2.469l0.04-0.137c0.14-0.539 0.06-1.097-0.29-1.613" fill="#2c2415"/></g>
  <g><path d="m377.76 26.066c1.12-1.875 1.19-4 0.15-6.078-0.85-1.703-2.29-3.566-3.92-4.558-0.52-0.317-1.11-0.434-1.6-0.809-1.19-0.906-1.64-2.129-2.26-3.43-1.28-2.7183-3.75-4.4879-6.71-4.9371-2.78-0.4219-5.58 0.4063-8.35-0.0391-2.51-0.4023-4.48-2.3789-6.45-3.8437-1.85-1.375-3.8-2.3516-6.15-2.3711-1.14-0.011719-2.45 0.23047-3.47 0.76953-0.88 0.46487-1.52 1.3243-2.26 1.9688-0.7 0.6094-1.4 0.8594-2.3 0.5898-1.15-0.3437-2.09-0.8906-3.34-1-2.51-0.2187-4.97 0.5352-7.15 1.7305-2.18 1.1875-3.64 2.8906-4.65 5.1406-0.44 0.9848-0.75 1.9808-1.01 3.0238-0.18 0.773-0.33 1.632-0.75 2.32-0.72 1.168-2.98 1.051-4.12 1.262-2.25 0.418-4.03 1.968-5.3 3.816-1.42 2.07-1.71 4.746-2.3 7.129-0.6 2.426-2.65 4.133-3.33 6.535-1.11 4.973 2.36 9.07 2.61 13.871 0.06 1.055-0.43 2.02-0.72 3.004-0.29 0.988-0.17 1.945 0.12 2.91 0.64 2.114 2.6 3.657 3.89 5.356 1.22 1.601 1.07 3.773 1.3 5.672 0.28 2.34 1.56 4.289 2.89 6.175 0.77 1.098 1.56 2.18 2.26 3.321 0.64 1.035 1.29 2.117 1.23 3.367-0.05 0.953-0.42 1.902-0.55 2.851-0.06 0.461-0.03 0.926 0.06 1.376 0.13 0.64 0.4 1.257 0.73 1.808 0.3 0.488 1 1.192 1.55 0.621 3.91-4.07 8.34-8.816 9.43-14.558 0.49-2.543-0.04-4.895-1.22-7.161-0.81-1.558-0.87-3.531-0.77-5.246 0.2-3.261 1.73-7.836 5.36-8.64 2.18-0.481 4.5 0.785 6.07 2.183 1.46 1.301 2.25 3.188 2.64 5.063 0.08 0.387 0.14 0.777 0.19 1.168l0.05 0.172c-0.18 0.949-0.37 1.898-0.59 2.84-0.43 0.73 0.62 2.339 1.45 2.132 0.14-0.019 0.26-0.086 0.35-0.226 1.1-1.192 1.03-3.059 0.86-4.555l-0.03-0.109c0.14-0.532 0.28-1.059 0.46-1.575 0.27-0.785 0.93-1.445 1.42-2.089 0.37-0.493 0.72-1.012 0.76-1.614 1.02-0.297 2.05-0.586 3.06-0.882 1.45-0.434 2.9-0.907 4.34-1.379 0.76-0.25 3.2-0.668 3.34-1.579 0.04-0.222-0.08-0.417-0.26-0.542-0.81-0.575-2.66 0.289-3.54 0.523-1.61 0.434-3.21 0.852-4.82 1.32-0.35 0.102-0.7 0.203-1.06 0.305l0.1-0.07c1.4-0.414 2.8-0.809 4.19-1.219 1.46-0.434 2.9-0.906 4.34-1.379 0.76-0.246 3.21-0.664 3.35-1.578 0.03-0.223-0.08-0.418-0.26-0.543-0.82-0.57-2.66 0.289-3.54 0.523-0.48 0.129-0.96 0.258-1.43 0.383 0.13-0.137 0.26-0.285 0.37-0.441 0.26-0.074 0.51-0.149 0.77-0.223 1.46-0.43 2.89-0.906 4.33-1.379 0.76-0.25 3.22-0.668 3.35-1.578 0.03-0.223-0.08-0.418-0.26-0.543-0.81-0.574-2.66 0.289-3.54 0.524-1.22 0.328-2.44 0.656-3.66 0.996 0.04-0.153 0.08-0.301 0.12-0.453 0.17-0.051 0.34-0.102 0.51-0.149 0.52-0.051 0.98-0.176 1.37-0.394 0.54-0.153 1.06-0.305 1.59-0.461 1.46-0.43 2.9-0.907 4.34-1.379 0.75-0.25 3.21-0.668 3.34-1.578 0.04-0.227-0.07-0.418-0.26-0.543-0.81-0.575-2.65 0.289-3.53 0.523-1.1 0.297-2.2 0.59-3.3 0.895 0.22-0.247 0.46-0.473 0.75-0.688l0.11-0.09c0.73-0.234 1.46-0.476 2.2-0.719 0.75-0.246 3.2-0.664 3.34-1.574 0.03-0.226-0.08-0.418-0.26-0.543-0.6-0.418-1.74-0.074-2.65 0.235 0.64-0.512 1.3-0.805 2.12-1.157 1-0.425 1.8-1.242 2.72-1.808 1.72-1.059 3.57-0.539 5.03 0.637 0.46 0.371 0.92 0.793 1.41 1.167 0.6 0.45 1.23 0.821 1.97 0.926 1.57 0.227 3.25-0.785 4.24-1.914 2.05-2.316 1.11-5.519-0.86-7.508" fill="#18193a"/></g>
  <g><path d="m336.53 55.352c-1.26-3.942-4.15-6.602-6.46-5.95l4.55 14.266c2.31-0.652 3.17-4.379 1.91-8.316" fill="#2c2415"/></g>
  <g><path d="m368.98 52.945c-3.23-0.965-6.98-2.199-9.75 0.184-0.96 0.82-1.97-1.098-1.14-1.82 3.01-2.629 7.02-2.125 10.56-1.02 3.35 0.809 1.44 2.988 0.33 2.656zm-34.36 10.723l-4.55-14.266c2.31-0.652 5.2 2.008 6.46 5.95 1.26 3.937 0.4 7.664-1.91 8.316zm37.79-29.106c-0.49-0.374-0.95-0.796-1.41-1.167-1.46-1.176-3.31-1.696-5.03-0.637-0.92 0.566-1.72 1.383-2.72 1.808-0.82 0.352-1.48 0.645-2.12 1.157 0.91-0.309 2.05-0.653 2.65-0.235 0.18 0.125 0.29 0.317 0.26 0.543-0.14 0.91-2.59 1.328-3.34 1.574-0.74 0.243-1.47 0.485-2.2 0.719l-0.11 0.09c-0.29 0.215-0.53 0.441-0.75 0.688 1.1-0.305 2.2-0.598 3.3-0.895 0.88-0.234 2.72-1.098 3.53-0.523 0.19 0.125 0.3 0.316 0.26 0.543-0.13 0.91-2.59 1.328-3.34 1.578-1.44 0.472-2.88 0.949-4.34 1.379-0.53 0.156-1.05 0.308-1.59 0.461-0.39 0.218-0.85 0.343-1.37 0.394-0.17 0.047-0.34 0.098-0.51 0.149-0.04 0.152-0.08 0.3-0.12 0.453 1.22-0.34 2.44-0.668 3.66-0.996 0.88-0.235 2.73-1.098 3.54-0.524 0.18 0.125 0.29 0.32 0.26 0.543-0.13 0.91-2.59 1.328-3.35 1.578-1.44 0.473-2.87 0.949-4.33 1.379-0.26 0.074-0.51 0.149-0.77 0.223-0.11 0.156-0.24 0.304-0.37 0.441 0.47-0.125 0.95-0.254 1.43-0.383 0.88-0.234 2.72-1.093 3.54-0.523 0.18 0.125 0.29 0.32 0.26 0.543-0.14 0.914-2.59 1.332-3.35 1.578-1.44 0.473-2.88 0.945-4.34 1.379-1.39 0.41-2.79 0.805-4.19 1.219l-0.1 0.07c0.36-0.102 0.71-0.203 1.06-0.305 1.61-0.468 3.21-0.886 4.82-1.32 0.88-0.234 2.73-1.098 3.54-0.523 0.18 0.125 0.3 0.32 0.26 0.542-0.14 0.911-2.58 1.329-3.34 1.579-1.44 0.472-2.89 0.945-4.34 1.379-1.01 0.296-2.04 0.585-3.06 0.882-0.04 0.602-0.39 1.121-0.76 1.614-0.49 0.644-1.15 1.304-1.42 2.089-0.18 0.516-0.32 1.043-0.46 1.575l0.03 0.109c0.17 1.496 0.24 3.363-0.86 4.555-0.09 0.14-0.21 0.207-0.35 0.226-0.83 0.207-1.88-1.402-1.45-2.132 0.22-0.942 0.41-1.891 0.59-2.84l-0.05-0.172c-0.05-0.391-0.11-0.781-0.19-1.168-0.39-1.875-1.18-3.762-2.64-5.063-1.57-1.398-3.89-2.664-6.07-2.183-3.63 0.804-5.16 5.379-5.36 8.64-0.1 1.715-0.04 3.688 0.77 5.246 1.18 2.266 1.71 4.618 1.22 7.161-1.09 5.742-5.52 10.488-9.43 14.558-0.55 0.571-1.25-0.133-1.55-0.621-0.33-0.551-0.6-1.168-0.73-1.808l-28.97 19.682 17.25 25.38s13.24-13.02 26.28-23l7.67-17.816c1.43 3.226 3.41 6.246 5.8 8.941 4.21 4.762 9.69 8.505 15.68 10.515l4.7-7.699v-0.003c1.59 0.113 2.67-1.02 3.28-2.626 0.05-0.152 0.11-0.308 0.14-0.468 0.45-1.871-0.02-3.614-1.64-4.305l0.02-0.066c-0.19-0.02-0.38-0.047-0.57-0.09 0 0-7.22-2.375-10.33-7.192l-0.16 0.184c-0.15 0.168-0.34 0.164-0.53 0.063-0.34-0.094-0.59-0.504-0.58-0.86-0.03-0.164-0.05-0.375 0.06-0.484l0.17-0.156c0.11-0.122 0.22-0.243 0.34-0.368 0.21-0.234 0.4-0.406 0.7-0.511 0.5-0.176 0.91 0.632 0.71 1.031l-0.01 0.023-0.03 0.071-0.06 0.152c-0.06 0.164-0.15 0.285-0.26 0.422l-0.15 0.18c5.98 5.031 12.93 2.64 14.37 2.984 0.19 0.051 0.27 0.168 0.25 0.332 0.35 0.516 0.43 1.074 0.29 1.613 0.04-0.121 0.09-0.238 0.11-0.359 0.5-2.047 0.18-2.598-2.23-5.703l0.03-0.106c2.95 0.656 5.82-0.672 6.77-3.047 0.09-0.203 0.16-0.41 0.21-0.629 0.66-2.765-1.36-5.625-4.54-6.453l0.16-0.66s1.49-8.031 6.39-12.207l-0.15 0.035c0.12-0.136 0.21-0.281 0.25-0.437 0.04-0.207 0.1-0.414 0.14-0.625 1.72-7.781-0.34-15.715-4.73-22.364" fill="#7a551c"/></g>
  <g><path d="m364.79 58.809c-0.7-0.176-1.4-0.157-2.05 0.019l-0.03-0.016-4.19-1.777-0.25 0.043-0.06 0.246 1.11 2.836-3.47-0.039c-0.1 0-0.18 0.063-0.21 0.152-0.04 0.094-0.01 0.196 0.07 0.254l2.95 2.325-2.26 1.687c-0.08 0.059-0.11 0.152-0.08 0.246l0.16 0.156 0.04 0.008 4.16 0.406c0.53 0.629 1.26 1.114 2.12 1.329 2.18 0.55 4.38-0.766 4.93-2.942s-0.77-4.383-2.94-4.933" fill="#100e0c"/></g>
  <g><path d="m280.52 560.51c-1.72-0.41-2.78-2.13-2.38-3.85l25.23-106.24c0.41-1.72 2.13-2.78 3.85-2.37 1.71 0.41 2.78 2.13 2.37 3.85l-25.23 106.24c-0.34 1.47-1.66 2.46-3.1 2.46-0.25 0-0.49-0.03-0.74-0.09" fill="#d61273"/></g>
  <g><path d="m324.99 459.7c12.76-12.93-34.74-17.07-49.92-33.84-7.33 0.05-16.93 16.1-16.88 23.78s6.02 10.46 13.35 10.41c7.34-0.05 41.62-0.28 53.45-0.35" fill="#7a551c"/></g>
  <g><path d="m261.81 439.22s-7.61 8.02-3.01 21.03h73.68s7.13-9.15-17.06-14.24c0 0-1.96 14.93-53.61-6.79" fill="#f2eadc"/></g>
  <g><path d="m332.48 460.25h-20.12c0.06-5.17 1.7-9.97 4.46-13.93 22.51 5.14 15.66 13.93 15.66 13.93" fill="#201c1c"/></g>
  <g><path d="m257.85 460.59c0 1.14 0.04 2.05 0.83 2.05h72.96c0.79 0 1.44-0.91 1.44-2.05 0-1.13-0.65-2.05-1.44-2.05h-72.96c-0.79 0-0.83 0.92-0.83 2.05" fill="#201c1c"/></g>
  <g><path d="m525.27 220.16c-4.89 9.1-16.23 12.51-25.32 7.62-2.28-1.22-4.2-2.85-5.72-4.74-4.57-5.68-5.57-13.76-1.91-20.59 4.89-9.09 16.23-12.51 25.33-7.62s12.51 16.23 7.62 25.33" fill="#4e75c3"/></g>
  <g><path d="m496.8 260.06l4.16-34.79 17.49 1.37 20.55 39.11-42.2-5.69" fill="#4e75c3"/></g>
  <g><path d="m461.33 338.01c-1.91-72.26 16.87-82.77 47.11-90.41l30.56 18.15c0 36.77-25.51 67.22-40.11 67.22l-37.56 5.04" fill="#4e75c3"/></g>
  <g><path d="m486.97 332.96c4.08-12.72 14.72-41.7 17.01-48.43 0 0 24.01 26.81 12.31 38.67-6.1 6.19-12.4 9.77-17.4 9.77l-11.92-0.01" fill="#18193a"/></g>
  <g><path d="m523.42 338.66l-15.62-31.69-3.82-22.44 21.02-16.87s2.22 62.36 12.41 66.84-13.99 4.16-13.99 4.16" fill="#4e75c3"/></g>
  <g><path d="m508.92 204.96c-2.79-0.14-5.33-0.58-8.23-0.63-3.08-0.06-5.77-0.81-8.68-1.18l0.12-0.23c5.73-10.09 18.05-17.65 27.52-16.88l-10.73 18.92" fill="#4e75c3"/></g>
  <g><path d="m545.05 338.66c0 3.16-2.56 5.72-5.72 5.72h-10.19c-3.16 0-5.72-2.56-5.72-5.72s2.56-5.73 5.72-5.73h10.19c3.16 0 5.72 2.57 5.72 5.73" fill="#4e75c3"/></g>
  <g><path d="m522.65 212.78c-1 1.86-3.32 2.56-5.18 1.56s-2.55-3.32-1.55-5.18c0.99-1.86 3.31-2.55 5.17-1.55s2.55 3.31 1.56 5.17" fill="#201c1c"/></g>
  <g><path d="m508.92 212.31c-0.08 2.82 0.23 5.56 0.04 8.44-0.19 3.06 0.48 6.12 0.68 9.18h0.29c12.7-0.13 22.92-8.14 22.82-17.87l-23.83 0.25" fill="#4e75c3"/></g>
  <g><path d="m460.37 338.01c0 3.52 2.86 6.37 6.38 6.37h43.61c3.52 0 6.38-2.85 6.38-6.37 0-3.51-2.86-6.37-6.38-6.37h-43.61c-3.52 0-6.38 2.86-6.38 6.37" fill="#4e75c3"/></g>
  <g><path d="m465.44 337.2l-0.03-0.04c-0.06-0.11-0.21-0.32-0.43-0.58-0.45-0.54-1.15-1.28-1.95-2.18-0.53-0.62-1.11-1.31-1.69-2.21-2.57-4.05-4.38-8.35-5.91-12.35-4.09-10.7-5.1-21.36-5.96-31.72-0.32-3.86-0.51-7.66-0.51-11.45 0-6.71 0.58-13.4 1.99-20.3 1.72-8.5 4.83-16.07 8.16-23.4 1.35-2.97 4.85-4.28 7.82-2.93 2.96 1.35 4.27 4.85 2.93 7.82-3.22 7.05-5.91 13.75-7.35 20.85-1.22 6.08-1.74 11.93-1.74 17.96 0 3.41 0.17 6.88 0.46 10.47 0.84 10.27 1.84 19.69 5.22 28.48 1.42 3.72 2.98 7.31 4.85 10.22 0.08 0.16 0.56 0.74 1.22 1.46 0.67 0.74 1.52 1.63 2.39 2.84 0.58 0.81 1.19 1.78 1.64 3.08 1.07 3.08-0.57 6.44-3.65 7.51-0.64 0.22-1.29 0.32-1.93 0.32-2.4 0-4.66-1.48-5.53-3.85" fill="#4e75c3"/></g>
  <g><path d="m549.07 354.99h12.34v-83.01h-12.34z" fill="#2c2415"/></g>
  <g><path d="m529.27 354.99h12.34v-83.01h-12.34z" fill="#2c2415"/></g>
  <g><path d="m509.46 354.99h12.34v-83.01h-12.34z" fill="#2c2415"/></g>
  <g><path d="m489.66 354.99h12.34v-83.01h-12.34z" fill="#2c2415"/></g>
  <g><path d="m469.85 354.99h12.35v-83.01h-12.35z" fill="#2c2415"/></g>
  <g><path d="m450.05 354.99h12.34v-83.01h-12.34z" fill="#2c2415"/></g>
  <g><path d="m444.75 301.58h119.6v-12.35h-119.6z" fill="#7a551c"/></g>
  <g><path d="m444.75 283.69h119.6v-12.34h-119.6z" fill="#7a551c"/></g>
  <g><path d="m444.75 319.46h119.6v-12.34h-119.6z" fill="#7a551c"/></g>
  <g><path d="m444.75 337.35h119.6v-12.34h-119.6z" fill="#7a551c"/></g>
  <g><path d="m444.75 355.24h119.6v-12.34h-119.6z" fill="#7a551c"/></g>
  <g><path d="m174.72 231.16l-15.91 54.29 133.61 37.06 3.79-42.86-121.49-48.49" fill="#18193a"/></g>
  <g><path d="m502.89 575.54v-199.99c0-0.73 0.59-1.32 1.32-1.32s1.33 0.59 1.33 1.32v199.99c0 0.72-0.6 1.32-1.33 1.32s-1.32-0.6-1.32-1.32" fill="#201c1c"/></g>
  <g><path d="m553.07 562.8l-99.99-173.19c-0.37-0.63-0.15-1.44 0.48-1.8 0.63-0.37 1.44-0.15 1.8 0.48l99.99 173.19c0.36 0.63 0.15 1.43-0.48 1.8-0.21 0.12-0.43 0.18-0.66 0.18-0.45 0-0.9-0.24-1.14-0.66" fill="#201c1c"/></g>
  <g><path d="m590.15 526.68l-173.19-99.99c-0.63-0.37-0.85-1.17-0.48-1.8 0.36-0.63 1.17-0.85 1.8-0.48l173.19 99.99c0.63 0.36 0.85 1.17 0.48 1.8-0.24 0.42-0.68 0.66-1.14 0.66-0.22 0-0.45-0.06-0.66-0.18" fill="#201c1c"/></g>
  <g><path d="m404.22 476.86c-0.73 0-1.32-0.59-1.32-1.31 0-0.73 0.59-1.32 1.32-1.32h199.99c0.72 0 1.31 0.59 1.31 1.32 0 0.72-0.59 1.31-1.31 1.31h-199.99" fill="#201c1c"/></g>
  <g><path d="m416.48 526.2c-0.37-0.63-0.15-1.44 0.48-1.8l173.19-99.99c0.63-0.37 1.44-0.15 1.8 0.48 0.37 0.63 0.15 1.43-0.48 1.8l-173.19 99.99c-0.21 0.12-0.44 0.18-0.66 0.18-0.45 0-0.9-0.24-1.14-0.66" fill="#201c1c"/></g>
  <g><path d="m453.56 563.28c-0.63-0.36-0.85-1.17-0.48-1.8l99.99-173.19c0.36-0.63 1.17-0.85 1.8-0.48 0.63 0.36 0.84 1.17 0.48 1.8l-99.99 173.19c-0.24 0.42-0.68 0.66-1.14 0.66-0.23 0-0.45-0.06-0.66-0.18" fill="#201c1c"/></g>
  <g><path d="m111.88 577.43v-203.77c0-0.74 0.6-1.34 1.35-1.34 0.74 0 1.34 0.6 1.34 1.34v203.77c0 0.74-0.6 1.34-1.34 1.34-0.75 0-1.35-0.6-1.35-1.34" fill="#201c1c"/></g>
  <g><path d="m163 564.45l-101.88-176.47c-0.37-0.64-0.151-1.46 0.493-1.84 0.645-0.37 1.465-0.14 1.836 0.5l101.88 176.46c0.37 0.65 0.15 1.47-0.49 1.84-0.21 0.12-0.45 0.18-0.67 0.18-0.47 0-0.92-0.24-1.17-0.67" fill="#201c1c"/></g>
  <g><path d="m200.79 527.65l-176.47-101.88c-0.644-0.38-0.863-1.2-0.492-1.84s1.195-0.86 1.836-0.49l176.47 101.88c0.64 0.37 0.87 1.2 0.49 1.84-0.24 0.43-0.7 0.67-1.16 0.67-0.23 0-0.46-0.06-0.67-0.18" fill="#201c1c"/></g>
  <g><path d="m11.344 476.89c-0.742 0-1.344-0.6-1.344-1.34 0-0.75 0.602-1.35 1.344-1.35h203.77c0.74 0 1.34 0.6 1.34 1.35 0 0.74-0.6 1.34-1.34 1.34h-203.77" fill="#201c1c"/></g>
  <g><path d="m23.832 527.16c-0.371-0.64-0.152-1.47 0.492-1.84l176.47-101.88c0.64-0.37 1.46-0.15 1.83 0.49 0.38 0.64 0.15 1.46-0.49 1.84l-176.46 101.88c-0.213 0.12-0.447 0.18-0.674 0.18-0.465 0-0.918-0.24-1.164-0.67" fill="#201c1c"/></g>
  <g><path d="m61.613 564.94c-0.64-0.37-0.863-1.19-0.492-1.83l101.88-176.47c0.38-0.64 1.2-0.87 1.84-0.5 0.64 0.38 0.86 1.2 0.49 1.84l-101.88 176.47c-0.247 0.43-0.7 0.67-1.165 0.67-0.23 0-0.457-0.06-0.672-0.18" fill="#201c1c"/></g>
  <g clip-path="url(#clip1)">
   <path d="m113.23 572.38c-54.308 0-98.332-44.02-98.332-98.33 0-54.3 44.024-98.32 98.332-98.32 54.31 0 98.32 44.02 98.32 98.32 0 54.31-44.01 98.33-98.32 98.33zm0-211.56c-62.535 0-113.23 50.7-113.23 113.23 0 62.54 50.695 113.23 113.23 113.23 62.53 0 113.22-50.69 113.22-113.23 0-62.53-50.69-113.23-113.22-113.23" fill="#201c1c"/>
  </g>
  <g clip-path="url(#clip2)">
   <path d="m504.21 572.38c-54.3 0-98.32-44.02-98.32-98.33 0-54.3 44.02-98.32 98.32-98.32 54.31 0 98.33 44.02 98.33 98.32 0 54.31-44.02 98.33-98.33 98.33zm0-211.56c-62.53 0-113.22 50.7-113.22 113.23 0 62.54 50.69 113.23 113.22 113.23 62.54 0 113.23-50.69 113.23-113.23 0-62.53-50.69-113.23-113.23-113.23" fill="#201c1c"/>
  </g>
  <g><path d="m293.83 477.05l-183.01-5.62c-0.71-0.02-1.27-0.61-1.25-1.32 0.03-0.7 0.62-1.25 1.32-1.23l183.02 5.62c0.7 0.02 1.25 0.61 1.23 1.32-0.02 0.69-0.59 1.23-1.27 1.23h-0.04" fill="#201c1c"/></g>
  <g><path d="m285.59 535.15c-32.89-10.4-171.04-54.08-171.04-54.08-0.67-0.21-1.05-0.93-0.83-1.6 0.21-0.67 0.93-1.04 1.6-0.83 0 0 138.16 43.68 171.05 54.07 0.67 0.22 1.04 0.93 0.83 1.61-0.17 0.54-0.68 0.89-1.22 0.89-0.12 0-0.26-0.02-0.39-0.06" fill="#201c1c"/></g>
  <g><path d="m291.04 505.93l-97.06-185.97c-0.82-1.57-0.21-3.5 1.35-4.31 1.56-0.82 3.49-0.21 4.31 1.35 24.13 46.24 97.06 185.98 97.06 185.98 0.82 1.56 0.21 3.49-1.36 4.31-0.46 0.25-0.97 0.36-1.47 0.36-1.15 0-2.26-0.62-2.83-1.72" fill="#d61273"/></g>
  <g><path d="m111.66 478.32c-1.54-0.86-2.08-2.81-1.21-4.35l86.04-152.34c0.87-1.53 2.82-2.08 4.35-1.21 1.54 0.87 2.08 2.82 1.21 4.35l-86.04 152.34c-0.59 1.05-1.67 1.63-2.78 1.63-0.54 0-1.08-0.13-1.57-0.42" fill="#d61273"/></g>
  <g><path d="m260.25 446.17c0-1.77 1.43-3.2 3.2-3.2 40 0 76.14-15.42 102.29-40.33 26.14-24.92 42.26-59.27 42.26-97.27 0-1.76 1.43-3.19 3.2-3.19 1.76 0 3.19 1.43 3.19 3.19 0 39.83-16.93 75.87-44.24 101.9s-65.04 42.09-106.7 42.09c-1.77 0-3.2-1.43-3.2-3.19" fill="#d61273"/></g>
  <g><path d="m502.81 474.72l-94.4-167.78c-0.87-1.54-0.32-3.49 1.22-4.35 1.53-0.87 3.48-0.32 4.35 1.21l94.4 167.79c0.87 1.53 0.32 3.48-1.22 4.35-0.49 0.27-1.03 0.41-1.56 0.41-1.12 0-2.2-0.59-2.79-1.63" fill="#d61273"/></g>
  <g><path d="m291.61 506.72c-1.25-1.25-1.25-3.27 0-4.52l146.76-146.77c1.25-1.24 3.27-1.24 4.52 0 1.25 1.25 1.25 3.27 0 4.52l-146.77 146.77c-0.62 0.62-1.44 0.93-2.25 0.93-0.82 0-1.64-0.31-2.26-0.93" fill="#d61273"/></g>
  <g><path d="m227.91 304.82c-0.5 15.07-34.76 13.2-53.3 12.38-4.09-0.43-7.92-1.16-11.28-2.28-6.71-2.23-11.57-5.99-12.9-11.94-0.24-3.26 1.5-6.07 4.41-8.18 2.93-2.1 7.02-3.51 11.49-3.98 4.04-0.58 8.07-0.89 12.07-0.92 4-0.04 7.96 0.2 11.86 0.68 11.83 1.18 22.26 5.87 32.48 9.41 2.65 1.4 4.49 3.02 5.17 4.83" fill="#201c1c"/></g>
  <g><path d="m275.85 486.44c-4.62 4.62-7.46 10.97-7.47 18.02 0.01 7.04 2.85 13.4 7.47 18.02s10.97 7.46 18.02 7.46 13.4-2.84 18.02-7.46c4.61-4.62 7.46-10.98 7.46-18.02 0-7.05-2.85-13.4-7.46-18.02-4.62-4.62-10.97-7.46-18.02-7.47-7.05 0.01-13.4 2.85-18.02 7.47zm-13.86 18.02c0.01-17.61 14.28-31.87 31.88-31.87s31.87 14.27 31.87 31.87-14.27 31.87-31.87 31.87-31.87-14.27-31.88-31.87" fill="#d61273"/></g>
  <g><path d="m407.91 303.85c0-1.77 1.43-3.2 3.2-3.2 8.82 0 17-0.98 23.68-2.62 6.67-1.62 11.85-3.99 14.5-6.31 1.81-1.57 2.33-2.83 2.32-3.76l0.01-0.25-0.01-0.25c0.01-0.94-0.51-2.2-2.32-3.77-1.77-1.53-4.66-3.13-8.36-4.47-7.43-2.71-18.06-4.47-29.82-4.46-1.77 0-3.2-1.43-3.2-3.19 0-1.77 1.43-3.2 3.2-3.2 9.29 0 17.93 1.02 25.2 2.81 7.28 1.8 13.18 4.28 17.15 7.67 2.61 2.23 4.54 5.15 4.54 8.61v0.25 0.25c0 3.45-1.93 6.37-4.54 8.6-2.65 2.27-6.16 4.1-10.35 5.64-8.39 3.04-19.61 4.83-32 4.84-1.77 0-3.2-1.43-3.2-3.19" fill="#d61273"/></g>
  <g><path d="m434.5 273.35c0 3.6-2.92 6.52-6.52 6.52h-15.46c-3.6 0-6.52-2.92-6.52-6.52s2.92-6.52 6.52-6.52h15.46c3.6 0 6.52 2.92 6.52 6.52" fill="#201c1c"/></g>
  <g><path d="m325.44 566.39c12.77-12.93-34.74-17.07-49.91-33.84-7.33 0.05-16.94 16.1-16.89 23.78 0.06 7.68 6.02 10.46 13.35 10.41s41.63-0.27 53.45-0.35" fill="#7a551c"/></g>
  <g><path d="m201.18 237.06l-53.19 19.32 60.64 159.73c13.24 36.43 2.3 18.98 14.33 55.63 5.95 16.37 39.07 69.04 39.07 69.04l16.32-5.93-77.17-297.79" fill="#18193a"/></g>
  <g><path d="m292.58 320.6c-1.09-0.97-2.27-1.86-3.55-2.71-11.51-7.39-22.08-14.76-32.2-22.91l0.03 1.64c0.25 38.76-4.2 18.65-5.15 57.22 0.11 17.42 13.65 78.14 13.65 78.14l17.36-0.11 9.86-111.27" fill="#18193a"/></g>
  <g><path d="m316.43 127.33c-0.1-11.85-8.83-27.07-23.42-30.068-14.45-2.969-28.37 9.568-29.17 10.438-21.32 43.86-65.36 89.12-65.36 89.12l-5.48 5.88c-59.12 20.7-52.18 53.57-52.18 53.57h63.82c21.41-23.23 64.41-69.9 78.79-85.5 39.27-1.75 33.07-33.9 33-43.44" fill="#f9b617"/></g>
  <g><path d="m261.81 545.67s-7.61 8.02-3.01 21.03h73.68s7.13-9.15-17.06-14.24c0 0-1.96 14.93-53.61-6.79" fill="#f2eadc"/></g>
  <g><path d="m332.48 566.7h-20.12c0.06-5.18 1.7-9.97 4.46-13.93 22.51 5.14 15.66 13.93 15.66 13.93" fill="#201c1c"/></g>
  <g><path d="m257.85 567.04c0 1.14 0.04 2.05 0.83 2.05h72.96c0.79 0 1.44-0.91 1.44-2.05 0-1.13-0.65-2.05-1.44-2.05h-72.96c-0.79 0-0.83 0.92-0.83 2.05" fill="#201c1c"/></g>
  <g><path d="m258.19 108.44s-31.57 35.05-51.99 75.24l48.82 37.82s50.15-48.5 59.95-64.97c9.04-15.19 2.39-34.53-0.67-40.57 0 0 15.19-19.948-20.05-39.155l-8.33 15.633s-18.49 4.078-27.73 16.002" fill="#201c1c"/></g>
  <g><path d="m277.87 191.61l-23.85 3.02-0.85-6.74 23.85-3.03 0.85 6.75" fill="#f2eadc"/></g>
  <g><path d="m260.56 216.16c-1.06 1.04-1.99 1.95-2.76 2.7l-49.91-38.65c0.6-1.15 1.22-2.29 1.83-3.43l50.84 39.38" fill="#f2eadc"/></g>
  <g><path d="m265.18 211.59c-0.97 0.96-1.89 1.87-2.75 2.72l-51.43-39.84c0.63-1.13 1.27-2.26 1.91-3.37l52.27 40.49" fill="#f2eadc"/></g>
  <g><path d="m407.13 284.03c-17.4-11.6-33.94-22.21-56.36-49.18l-7.16-10.76-1.92-2.88c-24.23-36.64-53.85-90.41-58.56-107.23-1.74-8.45 10.77-14.683 16.08-10.72 1.43 2.14 116.63 174.97 116.63 174.97-2.86 1.9-6.26 4.17-8.71 5.8" fill="#f2eadc"/></g>
  <g><path d="m403.75 268.24l28.86-10.75s11.6 13.42 8.73 19.06c-2.88 5.64-5.75 9.15-14.48 9.69-8.74 0.53-19.15-0.85-19.15-0.85l-3.96-17.15" fill="#7a551c"/></g>
  <g><path d="m401.39 256.82l15.38 5.69-8.65 23.39-13.63-10.41 6.9-18.67" fill="#201c1c"/></g>
  <g><path d="m411.3 260.49l2.9 1.06-8.36 22.6-2.57-1.95 8.03-21.71" fill="#f2eadc"/></g>
  <g><path d="m406.45 258.69l2.89 1.07-7.8 21.1-2.57-1.95 7.48-20.22" fill="#f2eadc"/></g>
  <g><path d="m240.18 217.7c0.12-0.12 0.24-0.25 0.35-0.38h0.01c-0.12 0.13-0.24 0.25-0.36 0.38m-35.26-27.77l-0.01-0.01c1.16-1.27 2.44-2.7 3.84-4.26-1.39 1.57-2.68 3-3.83 4.27" fill="#fff"/></g>
  <g><path d="m237.44 220.68c-1.23-0.93-2.31-2.05-3.51-3.09-2.24-1.92-4.53-3.8-6.83-5.65-4.16-3.35-8.33-6.63-12.05-10.47-3.59-3.67-6.78-7.67-10.13-11.54 1.15-1.27 2.44-2.7 3.83-4.27l2.12 1.64c2.09 2.45 4.16 4.91 6.33 7.3 3.83 4.25 8.28 7.79 12.6 11.52 3.65 3.13 8.38 6.76 10.73 11.2-0.11 0.13-0.23 0.26-0.35 0.38-0.91 1-1.83 1.99-2.74 2.98" fill="#f1f037"/></g>
  <g><path d="m210.87 187.3l-2.12-1.64c0.12-0.14 0.24-0.27 0.36-0.41 0.59 0.68 1.18 1.36 1.76 2.05" fill="#3f363a"/></g>
  <g><path d="m215.88 244.07c0.95-1.03 1.92-2.08 2.9-3.14-0.98 1.06-1.94 2.11-2.9 3.14" fill="#fff"/></g>
  <g><path d="m215.88 244.07c-0.9-0.75-1.76-1.48-2.56-2.15-4.2-3.48-8-7.47-11.59-11.56-6.68-7.63-12.47-15.73-18.35-23.95 0.86-0.36 1.73-0.72 2.62-1.09 5.48 7.14 11.34 14.23 17.56 20.69 3.56 3.7 7.35 7.19 11.3 10.47 1.52 1.25 3.16 2.37 4.81 3.48-0.3 0.32-0.6 0.65-0.89 0.97-0.98 1.06-1.95 2.11-2.9 3.14" fill="#f1f037"/></g>
  <g><path d="m212.34 247.91c-0.52-0.18-1.05-0.36-1.58-0.55-6.06-2.22-11.9-4.9-17.64-7.86-5.89-3.05-11.85-6.16-17.47-9.73-5.12-3.25-10.01-6.97-14.86-10.64 0.91-0.69 1.87-1.38 2.87-2.08 9.92 5.96 20.27 11.5 30.62 16.61 6.02 2.96 12.04 5.92 18.08 8.84 1.14 0.55 2.32 1.07 3.5 1.59-1.2 1.3-2.38 2.58-3.52 3.82" fill="#f1f037"/></g>
  <g><path d="m208 252.62c1.05-1.13 2.12-2.3 3.24-3.51-1.11 1.21-2.19 2.38-3.24 3.51" fill="#2d2e7d"/></g>
  <g><path d="m140.95 248.4c0.03-0.19 0.07-0.39 0.1-0.59-0.03 0.2-0.07 0.4-0.1 0.59m0.88-3.95c0.04-0.12 0.07-0.24 0.11-0.36-0.04 0.12-0.07 0.24-0.11 0.36" fill="#fff"/></g>
  <g><path d="m206.84 253.88c-0.46-0.11-0.92-0.24-1.38-0.36-0.84-0.12-1.67-0.23-2.51-0.33-7.53-0.94-15.08-1.65-22.65-2.22-13.1-0.98-26.24-1.65-39.35-2.57 0.03-0.19 0.07-0.39 0.1-0.59 0.19-1.04 0.45-2.17 0.78-3.36 0.04-0.12 0.07-0.24 0.11-0.36 12.59 0.73 25.18 1.28 37.76 2.14 2.12 0.15 4.23 0.3 6.35 0.46-1-0.42-1.99-0.85-2.97-1.28-11.25-4.93-22.31-10.15-33.07-16.06 0.94-1.15 1.95-2.29 3.08-3.44 9.77 4.2 19.21 9.13 29.07 13.15 6.28 2.57 12.7 4.87 19.14 7.02 3.3 1.1 6.63 2.01 9.94 3.03-1.12 1.21-2.19 2.38-3.24 3.51-0.39 0.43-0.78 0.85-1.16 1.26" fill="#f1f037"/></g>
  <g><path d="m225.66 233.47h-0.01c0.2-0.21 0.39-0.43 0.59-0.64-0.2 0.22-0.39 0.43-0.58 0.64m-29.05-34.64l1.87-2.01-1.87 2.01m1.89-2.02c0.08-0.08 0.64-0.67 1.61-1.69-0.97 1.02-1.53 1.61-1.61 1.69" fill="#fff"/></g>
  <g><path d="m225.65 233.47c-6.95-5.03-12.58-12.66-17.55-19.26-3.43-4.55-6.76-9.19-10.22-13.71-0.42-0.55-0.84-1.11-1.27-1.67l1.87-2.01s0.01 0 0.02-0.01c0.08-0.08 0.64-0.67 1.61-1.69 4.18 4.96 7.83 10.53 11.64 15.59 5.27 6.97 10.79 13.34 16.99 19.4-0.83 0.91-1.67 1.82-2.5 2.72-0.2 0.21-0.39 0.43-0.59 0.64" fill="#f1f037"/></g>
  <g><path d="m195.27 296.28c-0.18 0-0.39-0.1-0.55-0.23-2.39-1.96-3.37-5.62-4.73-8.32-1.65-3.28-3.43-6.49-5.24-9.68-3.58-6.28-7.04-12.65-9.8-19.35-0.58-1.4-0.11-2 0.63-2 0.77 0 1.83 0.65 2.3 1.73 1.18 2.77 2.53 5.46 3.94 8.11h0.25 0.24c1.08-0.11 2.09-0.31 3.11-0.71 2.21-0.86 4.33-1.97 6.34-3.24 2.02-1.27 3.97-2.62 5.95-3.92 1.17-0.78 2.52-1.96 3.97-2.05 0.02 0 0.03-0.01 0.04-0.01 0.65 0 1.37 1.16 0.94 1.7-1.14 1.45-3.37 2.37-4.9 3.4-2.25 1.49-4.49 3.01-6.85 4.33-1.88 1.06-4.93 2.83-7.66 3.13 1.71 3.1 3.48 6.17 5.19 9.27s3.38 6.21 4.89 9.41c1.05 2.22 3.13 5.55 2.36 8.1-0.08 0.24-0.24 0.33-0.42 0.33" fill="#2d2e7d"/></g>
 </g>
</svg>